<?xml version="1.0" encoding="UTF-8" standalone="no"?>
<!-- Created with Inkscape (http://www.inkscape.org/) -->

<svg
   width="9.9965315mm"
   height="14.000014mm"
   viewBox="0 0 9.9965315 14.000014"
   version="1.1"
   id="svg1"
   inkscape:version="1.4.3 (0d15f75042, 2025-12-25)"
   sodipodi:docname="fork.svg"
   xmlns:inkscape="http://www.inkscape.org/namespaces/inkscape"
   xmlns:sodipodi="http://sodipodi.sourceforge.net/DTD/sodipodi-0.dtd"
   xmlns="http://www.w3.org/2000/svg"
   xmlns:svg="http://www.w3.org/2000/svg">
  <sodipodi:namedview
     id="namedview1"
     pagecolor="#ffffff"
     bordercolor="#000000"
     borderopacity="0.25"
     inkscape:showpageshadow="2"
     inkscape:pageopacity="0.0"
     inkscape:pagecheckerboard="0"
     inkscape:deskcolor="#d1d1d1"
     inkscape:document-units="mm"
     inkscape:zoom="0.70110129"
     inkscape:cx="397.23219"
     inkscape:cy="556.98086"
     inkscape:window-width="1706"
     inkscape:window-height="1030"
     inkscape:window-x="0"
     inkscape:window-y="0"
     inkscape:window-maximized="0"
     inkscape:current-layer="layer1" />
  <defs
     id="defs1" />
  <g
     inkscape:label="Layer 1"
     inkscape:groupmode="layer"
     id="layer1"
     transform="translate(-0.00173412,-0.99999304)">
    <path
       style="fill:#15cffd;fill-opacity:1;stroke:none;stroke-width:0.211667;stroke-linejoin:bevel"
       d="M 8,1 A 1.993,1.993 0 0 0 7,4.72 V 6 L 5,8 3,6 V 4.72 A 1.993,1.993 0 0 0 2,1 1.993,1.993 0 0 0 1,4.72 V 6.5 l 3,3 v 1.78 A 1.993,1.993 0 0 0 5,15 1.993,1.993 0 0 0 6,11.28 V 9.5 l 3,-3 V 4.72 A 1.993,1.993 0 0 0 8,1 Z M 2,4.2 C 1.34,4.2 0.8,3.65 0.8,3 0.8,2.35 1.35,1.8 2,1.8 2.65,1.8 3.2,2.35 3.2,3 3.2,3.65 2.65,4.2 2,4.2 Z m 3,10 c -0.66,0 -1.2,-0.55 -1.2,-1.2 0,-0.65 0.55,-1.2 1.2,-1.2 0.65,0 1.2,0.55 1.2,1.2 0,0.65 -0.55,1.2 -1.2,1.2 z M 8,4.2 C 7.34,4.2 6.8,3.65 6.8,3 6.8,2.35 7.35,1.8 8,1.8 8.65,1.8 9.2,2.35 9.2,3 9.2,3.65 8.65,4.2 8,4.2 Z"
       id="path1"
       inkscape:label="path1" />
  </g>
</svg>
