<?xml version="1.0" encoding="UTF-8" standalone="no"?>
<!-- Created with Inkscape (http://www.inkscape.org/) -->

<svg
   width="13.98mm"
   height="14mm"
   viewBox="0 0 13.98 14"
   version="1.1"
   id="svg1"
   inkscape:version="1.4.3 (0d15f75042, 2025-12-25)"
   sodipodi:docname="globe.svg"
   xmlns:inkscape="http://www.inkscape.org/namespaces/inkscape"
   xmlns:sodipodi="http://sodipodi.sourceforge.net/DTD/sodipodi-0.dtd"
   xmlns="http://www.w3.org/2000/svg"
   xmlns:svg="http://www.w3.org/2000/svg">
  <sodipodi:namedview
     id="namedview1"
     pagecolor="#ffffff"
     bordercolor="#000000"
     borderopacity="0.25"
     inkscape:showpageshadow="2"
     inkscape:pageopacity="0.0"
     inkscape:pagecheckerboard="0"
     inkscape:deskcolor="#d1d1d1"
     inkscape:document-units="mm"
     inkscape:zoom="0.70110129"
     inkscape:cx="397.23219"
     inkscape:cy="556.98086"
     inkscape:window-width="1706"
     inkscape:window-height="1066"
     inkscape:window-x="0"
     inkscape:window-y="0"
     inkscape:window-maximized="0"
     inkscape:current-layer="layer1" />
  <defs
     id="defs1" />
  <g
     inkscape:label="Layer 1"
     inkscape:groupmode="layer"
     id="layer1"
     transform="translate(0,-1)">
    <path
       style="fill:#15cffd;fill-opacity:1;stroke:none;stroke-width:0.211667;stroke-linejoin:bevel"
       d="M 7,1 C 3.14,1 0,4.14 0,8 0,11.86 3.14,15 7,15 7.48,15 7.94,14.95 8.38,14.86 8.21,14.78 8.18,14.13 8.36,13.77 8.55,13.36 9.17,12.32 8.56,11.97 7.95,11.62 8.12,11.47 7.75,11.06 7.38,10.65 7.53,10.59 7.5,10.48 7.42,10.14 7.86,9.59 7.89,9.54 7.91,9.48 7.91,9.27 7.89,9.21 7.89,9.13 7.62,8.99 7.55,8.98 7.49,8.98 7.44,9.09 7.35,9.11 7.26,9.13 6.85,8.86 6.76,8.78 6.67,8.7 6.62,8.55 6.49,8.44 6.36,8.31 6.35,8.41 6.16,8.33 5.97,8.25 5.36,8.02 4.88,7.85 4.4,7.66 4.36,7.38 4.36,7.19 4.34,6.99 4.06,6.72 3.94,6.52 3.8,6.32 3.78,6.05 3.74,6.11 3.7,6.17 3.99,6.89 3.94,6.92 3.89,6.94 3.78,6.72 3.64,6.54 3.5,6.35 3.78,6.45 3.34,5.59 2.9,4.73 3.48,4.29 3.51,3.84 3.54,3.39 3.89,4.01 3.7,3.71 3.51,3.41 3.7,2.82 3.56,2.6 3.43,2.38 2.68,2.85 2.68,2.85 2.7,2.63 3.37,2.27 3.84,1.93 4.31,1.59 4.62,1.87 5,1.98 5.39,2.11 5.41,2.07 5.28,1.93 5.15,1.8 5.34,1.76 5.64,1.8 5.92,1.85 6.02,2.21 6.47,2.16 6.94,2.13 6.52,2.25 6.58,2.38 6.64,2.51 6.52,2.49 6.2,2.68 5.9,2.88 6.22,2.9 6.75,3.29 7.28,3.68 7.13,3.04 7.06,2.74 6.99,2.44 7.45,2.68 7.45,2.68 7.78,2.9 7.72,2.7 7.95,2.76 8.18,2.82 8.86,3.4 8.86,3.4 8.03,3.84 8.55,3.88 8.69,3.99 8.83,4.1 8.41,4.29 8.41,4.29 8.24,4.12 8.22,4.31 8.11,4.37 8,4.43 8.09,4.59 8.09,4.59 7.53,4.68 7.65,5.28 7.67,5.42 7.67,5.56 7.29,5.78 7.2,6 7.11,6.2 7.45,6.64 7.26,6.66 7.07,6.69 6.92,6 5.95,6.25 5.65,6.33 5.01,6.66 5.36,7.33 5.72,8.02 6.28,7.14 6.47,7.24 6.66,7.34 6.41,7.77 6.45,7.79 6.49,7.81 6.98,7.81 7.01,8.4 7.04,8.99 7.78,8.93 7.93,8.95 8.1,8.95 8.63,8.51 8.7,8.5 8.76,8.47 9.08,8.22 9.73,8.59 c 0.66,0.36 0.98,0.31 1.2,0.47 0.22,0.16 0.08,0.47 0.28,0.58 0.2,0.11 1.06,-0.03 1.28,0.31 0.22,0.34 -0.88,2.09 -1.22,2.28 -0.34,0.19 -0.48,0.64 -0.84,0.92 -0.36,0.28 -0.81,0.64 -1.27,0.91 -0.41,0.23 -0.47,0.66 -0.66,0.8 3.14,-0.7 5.48,-3.5 5.48,-6.84 0,-3.86 -3.14,-7 -7,-7 z M 8.64,7.56 C 8.55,7.59 8.36,7.78 7.86,7.48 7.38,7.18 7.05,7.25 7,7.2 7,7.2 6.95,7.09 7.17,7.06 7.61,7.01 8.15,7.47 8.28,7.47 8.41,7.47 8.47,7.34 8.69,7.42 8.91,7.5 8.74,7.55 8.64,7.56 Z M 6.34,1.7 C 6.29,1.67 6.37,1.62 6.43,1.56 6.46,1.53 6.45,1.45 6.48,1.42 6.59,1.31 7.09,1.17 7,1.45 6.89,1.72 6.42,1.75 6.34,1.7 Z M 7.57,2.59 C 7.38,2.57 6.99,2.54 7.05,2.45 7.35,2.17 6.96,2.07 6.71,2.07 6.46,2.05 6.37,1.91 6.49,1.88 6.61,1.85 7.1,1.9 7.19,1.96 7.27,2.02 7.71,2.21 7.74,2.34 7.76,2.47 7.74,2.59 7.57,2.59 Z M 9.04,2.54 C 8.9,2.63 8.21,2.13 8.09,2.02 7.53,1.54 7.2,1.71 7.09,1.61 6.98,1.51 7.01,1.42 7.2,1.27 c 0.19,-0.15 0.69,0.06 1,0.09 0.3,0.03 0.66,0.27 0.66,0.55 0.02,0.25 0.33,0.5 0.19,0.63 z"
       id="path1"
       inkscape:label="path1" />
  </g>
</svg>
