<?xml version="1.0" encoding="UTF-8" standalone="no"?>
<!-- Created with Inkscape (http://www.inkscape.org/) -->

<svg
   width="15mm"
   height="12.940002mm"
   viewBox="0 0 15 12.940002"
   version="1.1"
   id="svg1"
   inkscape:version="1.4.3 (0d15f75042, 2025-12-25)"
   sodipodi:docname="package.svg"
   xmlns:inkscape="http://www.inkscape.org/namespaces/inkscape"
   xmlns:sodipodi="http://sodipodi.sourceforge.net/DTD/sodipodi-0.dtd"
   xmlns="http://www.w3.org/2000/svg"
   xmlns:svg="http://www.w3.org/2000/svg">
  <sodipodi:namedview
     id="namedview1"
     pagecolor="#ffffff"
     bordercolor="#000000"
     borderopacity="0.25"
     inkscape:showpageshadow="2"
     inkscape:pageopacity="0.0"
     inkscape:pagecheckerboard="0"
     inkscape:deskcolor="#d1d1d1"
     inkscape:document-units="mm"
     inkscape:zoom="0.70110129"
     inkscape:cx="27.813385"
     inkscape:cy="555.55453"
     inkscape:window-width="1706"
     inkscape:window-height="1066"
     inkscape:window-x="0"
     inkscape:window-y="0"
     inkscape:window-maximized="0"
     inkscape:current-layer="layer1" />
  <defs
     id="defs1" />
  <g
     inkscape:label="Layer 1"
     inkscape:groupmode="layer"
     id="layer1"
     transform="translate(-1,-1.5374977)">
    <path
       style="fill:#15cffd;fill-opacity:1;stroke:none;stroke-width:0.212;stroke-linejoin:bevel;stroke-dasharray:none"
       d="m 1,4.27 v 7.47 c 0,0.45 0.3,0.84 0.75,0.97 l 6.5,1.73 c 0.16,0.05 0.34,0.05 0.5,0 l 6.5,-1.73 C 15.7,12.58 16,12.19 16,11.74 V 4.27 C 16,3.82 15.7,3.43 15.25,3.3 L 8.75,1.56 a 1.4,1.4 0 0 0 -0.5,0 L 1.75,3.3 C 1.3,3.43 1,3.82 1,4.27 Z M 8,13.36 2,11.77 V 5 L 8,6.61 Z M 2,4 4.5,3.33 11,5.06 8.5,5.73 Z m 13,7.77 -6,1.59 V 6.61 L 11,6.06 V 8.5 L 13,7.97 V 5.53 L 15,5 Z M 13,4.53 6.5,2.8 8.5,2.27 15,4 Z"
       id="path1"
       inkscape:label="path1" />
  </g>
</svg>
